<?xml version="1.0" standalone="no"?>
<!DOCTYPE svg PUBLIC "-//W3C//DTD SVG 20010904//EN"
 "http://www.w3.org/TR/2001/REC-SVG-20010904/DTD/svg10.dtd">
<svg version="1.0" xmlns="http://www.w3.org/2000/svg"
 width="512.000000pt" height="512.000000pt" viewBox="0 0 512.000000 512.000000"
 preserveAspectRatio="xMidYMid meet">
<metadata>
Created by potrace 1.11, written by Peter Selinger 2001-2013
</metadata>
<g transform="translate(0.000000,512.000000) scale(0.100000,-0.100000)"
fill="#000000" stroke="none">
<path d="M1840 4360 c-1576 -220 -1472 -201 -1559 -295 -87 -94 -121 -205
-121 -395 0 -208 44 -366 133 -482 31 -40 33 -48 19 -52 -213 -61 -232 -70
-232 -116 0 -26 60 -72 119 -94 63 -22 112 -75 140 -151 25 -66 40 -207 33
-311 l-4 -71 -104 -32 c-115 -37 -232 -89 -253 -114 -18 -23 -8 -43 26 -51 15
-4 45 -12 66 -17 l38 -10 -29 -37 c-38 -48 -66 -104 -89 -177 -27 -89 -24
-339 6 -450 45 -166 121 -279 218 -323 26 -11 464 -156 973 -321 l925 -300
1235 300 c1676 405 1574 379 1578 406 5 31 -68 70 -229 124 -147 50 -139 39
-139 193 0 112 20 211 56 276 31 57 69 89 136 114 62 23 98 58 98 94 0 35 -11
45 -65 61 -22 7 -46 14 -52 16 -8 3 7 24 36 53 65 65 117 172 142 297 17 82
20 126 17 245 -5 158 -20 219 -77 312 l-29 47 126 30 c69 17 130 35 136 41 30
30 -67 88 -244 145 l-118 39 -4 70 c-6 108 8 244 33 311 26 73 87 135 147 153
53 16 112 67 112 96 0 13 -8 30 -17 38 -16 14 -1740 540 -1760 537 -4 -1 -645
-90 -1423 -199z m-437 -697 c502 -163 914 -298 916 -300 6 -4 -13 -601 -20
-607 -3 -4 -406 106 -895 243 -489 137 -901 251 -916 255 -67 15 -128 105
-154 225 -19 92 -18 273 2 342 26 88 75 137 137 139 10 0 429 -134 930 -297z
m3288 116 c-32 -73 -43 -164 -39 -324 l3 -149 -1115 -278 c-613 -152 -1121
-277 -1129 -278 -10 0 -12 15 -7 68 3 37 8 173 12 303 l6 236 322 66 c176 36
465 96 641 132 176 36 545 112 820 169 275 57 501 102 503 101 1 -1 -6 -22
-17 -46z m20 -802 c19 -12 45 -44 59 -72 21 -42 25 -67 28 -171 3 -68 -1 -152
-8 -192 -13 -81 -56 -176 -93 -211 -21 -19 -214 -76 -948 -282 -508 -142 -925
-256 -928 -254 -5 6 -19 356 -20 516 l-1 95 73 22 c39 13 173 56 297 97 124
40 428 139 675 220 248 80 522 170 610 200 88 29 174 54 191 54 17 1 46 -9 65
-22z m-3141 -347 c618 -127 1125 -232 1126 -233 4 -4 21 -602 18 -606 -2 -2
-441 106 -976 239 -535 133 -1040 259 -1122 279 l-149 37 -1 190 c-1 194 -3
207 -51 318 -7 15 -5 17 11 12 10 -3 525 -109 1144 -236z m-322 -886 c499
-163 910 -299 914 -302 5 -6 -10 -603 -16 -609 -2 -2 -403 109 -892 246 -489
137 -901 251 -917 255 -42 10 -102 70 -127 128 -44 102 -62 282 -40 399 21
110 78 179 148 179 13 0 431 -133 930 -296z m3302 163 c0 -1 -9 -28 -20 -58
-31 -89 -42 -184 -38 -328 l3 -134 -1115 -278 c-613 -153 -1119 -278 -1124
-279 -8 0 0 445 10 552 l6 56 71 16 c337 72 407 84 440 75 29 -8 56 -2 173 35
97 31 312 80 704 161 311 64 635 131 720 149 177 38 170 37 170 33z"/>
</g>
</svg>
